#!OML:ASF I:\golf\golf\golf 2\Subject 1\2002-09-07\Subject1.ASF
:FULLY-SPECIFIED
:DEGREES
1
root 0.124447 18.1708 -6.81384 11.3329 -5.87828 -7.72657
lowerback -9.04872 -0.462562 -1.05026
upperback -1.63449 -0.681643 4.19157
thorax 3.44133 -0.372557 4.88384
lowerneck -16.7609 -9.73194 -6.51243
upperneck 24.2675 -11.7461 -0.70938
head 10.956 -6.05159 -0.898556
rclavicle 9.06644e-015 3.35946e-014
rhumerus -31.102 -5.70681 -81.8704
rradius 28.1495
rwrist -8.84261
rhand -14.5021 7.15475
rfingers 7.12502
rthumb 11.6449 -22.5017
lclavicle 9.06644e-015 3.35946e-014
lhumerus -30.251 8.6993 84.1381
lradius 25.2125
lwrist 4.64382
lhand -13.0383 36.6671
lfingers 7.12502
lthumb 13.0563 66.2385
rfemur -12.9397 2.48135 26.5882
rtibia 21.6289
rfoot -10.8197 -7.60572
rtoes -5.31957
lfemur -10.6559 2.01036 -12.8754
ltibia 21.9738
lfoot -15.4526 8.33683
ltoes -8.91119
2
root 0.123877 18.1724 -6.81129 11.3028 -5.88384 -7.56576
lowerback -8.99186 -0.527632 -1.41602
upperback -2.35123 -0.713396 4.19266
thorax 2.6711 -0.368855 5.08724
lowerneck -14.4484 -9.5489 -6.4301
upperneck 24.0605 -11.6075 -1.03326
head 10.4097 -6.05599 -0.867581
rclavicle -1.74729e-014 -1.44119e-015
rhumerus -32.7719 -5.19721 -81.8839
rradius 28.4018
rwrist -8.90277
rhand -14.6008 8.04972
rfingers 7.12502
rthumb 11.5497 -21.612
lclavicle -1.74729e-014 -1.44119e-015
lhumerus -32.2288 8.65358 83.6436
lradius 25.5954
lwrist 3.65254
lhand -11.9256 35.5156
lfingers 7.12502
lthumb 14.1287 65.0153
rfemur -12.8968 2.4772 26.4184
rtibia 21.5857
rfoot -10.8212 -7.69297
rtoes -8.61
lfemur -10.6595 2.08306 -13.0678
ltibia 22.0197
lfoot -15.5084 8.30717
ltoes -9.16741
3
root 0.1227 18.1715 -6.8128 11.3554 -5.81479 -7.61138
lowerback -9.0789 -0.519238 -1.24026
upperback -1.83601 -0.733784 4.19789
thorax 3.25547 -0.394862 4.99202
lowerneck -16.5538 -9.64811 -6.28965
upperneck 24.6078 -11.6067 -1.12135
head 10.9957 -6.02282 -1.05513
rclavicle 5.6312e-015 -2.73329e-014
rhumerus -31.6025 -5.30022 -82.0143
rradius 28.3348
rwrist -8.80676
rhand -14.6303 8.25638
rfingers 7.12502
rthumb 11.5213 -21.407
lclavicle 5.6312e-015 -2.73329e-014
lhumerus -30.9903 8.92509 83.7791
lradius 25.3786
lwrist 3.50007
lhand -11.8648 34.9842
lfingers 7.12502
lthumb 14.1872 64.4798
rfemur -12.7801 3.00347 26.3446
rtibia 21.4788
rfoot -11.3885 -7.67818
rtoes -6.67616
lfemur -10.8211 2.24706 -13.0231
ltibia 22.1713
lfoot -15.5717 8.21325
ltoes -9.42803
4
root 0.121431 18.1721 -6.81392 11.3836 -5.79019 -7.63708
lowerback -9.11975 -0.51074 -1.17595
upperback -1.65381 -0.734632 4.20735
thorax 3.4674 -0.400608 4.96621
lowerneck -17.306 -9.70336 -6.28151
upperneck 24.807 -11.6371 -1.10403
head 11.2156 -6.0218 -1.10418
rclavicle 9.6659e-015 -2.75814e-014
rhumerus -31.2415 -5.17053 -82.1159
rradius 28.431
rwrist -8.9602
rhand -14.7509 7.98642
rfingers 7.12502
rthumb 11.405 -21.6834
lclavicle 9.6659e-015 -2.75814e-014
lhumerus -30.4508 9.1002 83.8311
lradius 25.2856
lwrist 3.23293
lhand -11.6107 34.8568
lfingers 7.12502
lthumb 14.4322 64.335
rfemur -12.7324 3.14236 26.3526
rtibia 21.4013
rfoot -11.6962 -7.81069
rtoes -9.56665
lfemur -10.9195 2.37897 -12.9944
ltibia 22.2776
lfoot -15.6236 8.12198
ltoes -9.44394
5
root 0.121321 18.175 -6.81318 11.3701 -5.80025 -7.60868
lowerback -9.10578 -0.533285 -1.26188
upperback -1.82708 -0.752267 4.23059
thorax 3.2822 -0.405029 5.03693
lowerneck -16.7084 -9.67072 -6.32799
upperneck 24.7332 -11.616 -1.13428
head 11.0744 -6.02954 -1.06881
rclavicle 6.21513e-015 -9.39258e-015
rhumerus -31.6546 -5.0284 -82.0913
rradius 28.4869
rwrist -9.0515
rhand -14.6909 7.71188
rfingers 7.12502
rthumb 11.4628 -21.9547
lclavicle 6.21513e-015 -9.39258e-015
lhumerus -30.8459 9.03402 83.8329
lradius 25.4098
lwrist 3.28822
lhand -11.4131 34.9176
lfingers 7.12502
lthumb 14.6225 64.3821
rfemur -12.7038 2.8656 26.3984
rtibia 21.2958
rfoot -11.3096 -7.81568
rtoes -9.76275
lfemur -10.9688 2.42087 -13.0268
ltibia 22.4129
lfoot -15.7225 8.10183
ltoes -9.39835
6
root 0.121527 18.178 -6.81361 11.3717 -5.76693 -7.63809
lowerback -9.0085 -0.632732 -1.41283
upperback -2.39569 -0.857597 4.33124
thorax 2.65042 -0.440332 5.21556
lowerneck -14.7643 -9.50345 -6.49882
upperneck 24.3969 -11.4812 -1.14453
head 10.5875 -6.0135 -0.907322
rclavicle -2.85598e-015 -1.19271e-015
rhumerus -32.8828 -4.69725 -82.018
rradius 28.5656
rwrist -8.84714
rhand -14.6372 7.30202
rfingers 7.12502
rthumb 11.5147 -22.3617
lclavicle -2.85598e-015 -1.19271e-015
lhumerus -32.2647 8.83504 83.726
lradius 25.7866
lwrist 3.53006
lhand -11.1818 35.4597
lfingers 7.12502
lthumb 14.8453 64.9079
rfemur -12.68 2.75895 26.4661
rtibia 21.2162
rfoot -11.008 -7.88449
rtoes -11.6627
lfemur -11.0305 2.45552 -12.9954
ltibia 22.5191
lfoot -15.8026 8.07566
ltoes -9.34175
7
root 0.122512 18.1803 -6.81305 11.3783 -5.76289 -7.65775
lowerback -9.01784 -0.574628 -1.29889
upperback -2.26877 -0.791757 4.26322
thorax 2.77858 -0.410626 5.08611
lowerneck -15.2737 -9.55731 -6.29505
upperneck 24.5214 -11.5603 -1.19175
head 10.714 -6.0301 -0.997895
rclavicle 2.3497e-015 4.39811e-014
rhumerus -32.6166 -4.91409 -82.0605
rradius 28.5148
rwrist -8.86856
rhand -14.525 7.2779
rfingers 7.12502
rthumb 11.6228 -22.3798
lclavicle 2.3497e-015 4.39811e-014
lhumerus -31.9712 8.4733 83.8345
lradius 25.8821
lwrist 3.86206
lhand -12.3107 34.1644
lfingers 7.12502
lthumb 13.7576 63.6895
rfemur -12.6232 2.79324 26.4685
rtibia 21.1069
rfoot -10.8616 -7.84451
rtoes -12.012
lfemur -11.0699 2.5204 -12.9919
ltibia 22.5858
lfoot -15.8685 8.0639
ltoes -9.23381
8
root 0.124482 18.1822 -6.81023 11.3696 -5.85339 -7.64521
lowerback -9.05806 -0.542121 -1.27697
upperback -2.24331 -0.75095 4.24582
thorax 2.82285 -0.391148 5.05998
lowerneck -15.2886 -9.5754 -6.22958
upperneck 24.5289 -11.5839 -1.26072
head 10.7107 -6.0432 -1.03598
rclavicle 9.31803e-017 -3.92103e-014
rhumerus -32.6287 -4.8268 -82.0864
rradius 28.4815
rwrist -8.96546
rhand -14.6905 7.49547
rfingers 7.12502
rthumb 11.4633 -22.1711
lclavicle 9.31803e-017 -3.92103e-014
lhumerus -31.7845 8.29536 83.9788
lradius 25.831
lwrist 4.28979
lhand -12.4938 34.253
lfingers 7.12502
lthumb 13.5811 63.79
rfemur -12.5375 2.79368 26.4263
rtibia 20.9848
rfoot -10.9246 -7.72125
rtoes -11.9027
lfemur -11.0675 2.56834 -13.0494
ltibia 22.6757
lfoot -15.9484 8.15346
ltoes -9.08786
9
root 0.125735 18.1888 -6.80794 11.3843 -5.91999 -7.67427
lowerback -9.05565 -0.527828 -1.23117
upperback -2.29165 -0.734911 4.2493
thorax 2.76921 -0.381358 5.03912
lowerneck -15.151 -9.57911 -6.20099
upperneck 24.5274 -11.589 -1.33081
head 10.6773 -6.05357 -1.05749
rclavicle -2.76404e-014 -1.42131e-014
rhumerus -32.7592 -4.81651 -82.0704
rradius 28.4688
rwrist -8.95884
rhand -14.8461 7.57495
rfingers 7.12502
rthumb 11.3132 -22.0999
lclavicle -2.76404e-014 -1.42131e-014
lhumerus -31.6536 8.30436 84.0287
lradius 25.6495
lwrist 4.40627
lhand -12.3347 34.5057
lfingers 7.12502
lthumb 13.7344 64.0324
rfemur -12.4843 2.72997 26.4687
rtibia 20.8543
rfoot -10.8938 -7.65165
rtoes -11.2451
lfemur -11.1005 2.60445 -13.0488
ltibia 22.7657
lfoot -16.1216 8.135
ltoes -7.86258
